<?xml version="1.0" standalone="no"?>
<!DOCTYPE svg PUBLIC "-//W3C//DTD SVG 20010904//EN"
 "http://www.w3.org/TR/2001/REC-SVG-20010904/DTD/svg10.dtd">
<svg version="1.0" xmlns="http://www.w3.org/2000/svg"
 width="512.000000pt" height="512.000000pt" viewBox="0 0 512.000000 512.000000"
 preserveAspectRatio="xMidYMid meet">
<metadata>
Created by potrace 1.16, written by Peter Selinger 2001-2019
</metadata>
<g transform="translate(0.000000,512.000000) scale(0.100000,-0.100000)"
fill="#000000" stroke="none">
<path d="M3454 4789 c-44 -5 -104 -12 -133 -16 l-54 -8 159 -120 c400 -302
741 -625 1044 -990 87 -104 262 -333 280 -365 5 -8 11 -12 14 -9 4 3 13 73 22
155 20 188 14 580 -10 724 -39 224 -96 380 -166 450 -70 70 -226 127 -450 166
-112 19 -577 28 -706 13z"/>
<path d="M2665 4621 c-521 -178 -948 -443 -1335 -831 -390 -389 -657 -820
-832 -1339 -26 -80 -48 -154 -48 -166 0 -23 132 -222 259 -390 433 -576 949
-1060 1507 -1415 l61 -39 159 53 c536 180 961 442 1354 836 184 183 293 317
439 535 168 252 295 515 397 819 l53 159 -39 61 c-355 558 -839 1074 -1415
1507 -188 142 -367 259 -394 258 -14 0 -89 -22 -166 -48z m310 -774 c42 -42
51 -74 31 -120 -12 -29 -36 -50 -115 -102 -56 -35 -101 -68 -101 -73 0 -4 29
-37 65 -72 78 -77 95 -117 72 -172 -16 -38 -48 -65 -82 -68 -56 -6 -70 2 -160
91 l-93 90 -126 -100 c-69 -56 -126 -104 -126 -108 0 -3 45 -52 100 -109 96
-99 100 -104 100 -147 0 -74 -68 -130 -137 -112 -15 3 -72 50 -128 106 -56 54
-106 99 -112 99 -6 0 -59 -52 -118 -115 l-108 -116 100 -102 c69 -69 103 -112
107 -133 13 -59 -33 -129 -89 -134 -56 -6 -70 2 -165 96 l-98 96 -54 -69 c-75
-94 -138 -184 -138 -196 0 -6 34 -45 75 -88 72 -73 75 -79 75 -124 0 -38 -5
-52 -29 -75 -59 -60 -109 -52 -193 28 -70 66 -59 71 -136 -67 -64 -114 -118
-144 -191 -106 -29 14 -61 68 -61 101 0 18 59 131 123 239 l36 59 -79 81
c-103 106 -114 153 -50 216 23 24 37 29 75 29 44 0 51 -4 115 -65 l67 -66 101
133 100 133 -47 50 c-26 28 -51 63 -54 78 -10 38 15 93 55 117 56 34 94 25
159 -37 l36 -34 113 121 113 121 -37 38 c-44 45 -55 94 -32 139 22 43 54 62
103 62 37 0 50 -6 89 -42 33 -30 49 -39 59 -32 66 47 235 191 235 199 0 6 -20
31 -45 55 -57 56 -71 96 -51 144 16 39 67 76 104 76 35 0 61 -17 128 -82 l62
-60 45 31 c25 17 82 53 128 81 102 62 136 65 184 17z"/>
<path d="M339 1738 c-21 -173 -19 -633 4 -770 39 -230 96 -387 167 -458 81
-81 281 -145 542 -176 110 -12 197 -15 378 -11 219 5 411 21 409 36 0 3 -58
48 -127 99 -440 321 -866 746 -1222 1217 -62 83 -119 156 -125 163 -10 11 -15
-10 -26 -100z"/>
</g>
</svg>
